<svg id="Layer_1" data-name="Layer 1" xmlns="http://www.w3.org/2000/svg" xmlns:xlink="http://www.w3.org/1999/xlink" viewBox="0 0 563.84 563.84"><defs><style>.cls-1{fill:#58595b;}.cls-2{fill:url(#linear-gradient);}.cls-3{fill:url(#linear-gradient-2);}.cls-4{fill:#5c616b;}.cls-5{fill:#f27384;}.cls-6{fill:#bec0c2;}.cls-7{fill:#dedfe0;}</style><linearGradient id="linear-gradient" x1="300.12" y1="171.35" x2="385.92" y2="171.35" gradientUnits="userSpaceOnUse"><stop offset="0.42" stop-color="#59bfe6"/><stop offset="0.72" stop-color="#479dd1"/><stop offset="0.87" stop-color="#3d8ac5"/></linearGradient><linearGradient id="linear-gradient-2" x1="259.58" y1="289.52" x2="581.92" y2="289.52" gradientUnits="userSpaceOnUse"><stop offset="0.5" stop-color="#78bad7"/><stop offset="0.81" stop-color="#3278a4"/></linearGradient></defs><path class="cls-1" d="M508.74,115.94C446.34,42.84,350.68,9.36,259.58,21a281.14,281.14,0,0,0-158.93,79.69,284.79,284.79,0,0,0-21.23,23.76A281.93,281.93,0,0,0,300,581.92q11.88,0,23.52-1a280,280,0,0,0,83.3-20c50.07-45.66,11.38-120.7,78.79-148.37l-.34-.08a178.39,178.39,0,0,1-53.13-22.87,194.38,194.38,0,0,1-41.09-34.8A169.81,169.81,0,0,1,362,310c-.94-2.2-1.87-4.41-2.72-6.67a217.3,217.3,0,0,1-9.3-30.88c-1.14-5.3-2.08-10.64-2.76-16-.3-2.4-.6-4.82-.76-7.22-.11-1.55.09-3.36-.39-4.82,0-.11,0-.36-.18-.41,3.75,1.62,8,1.78,12,1.85,9.43.18,18.87.89,28.35.8,22-.21,43.44-3.18,64.38-10a228,228,0,0,0,21.29-8.18c3.84-1.71,7.66-3.51,11.4-5.41,14.49-7.38,28.75-16.23,40.06-27.93a171.08,171.08,0,0,1,13,14c1.13,1.34,2.24,2.68,3.31,4.06a286.69,286.69,0,0,0,4.16-43.41v-1.6A272.69,272.69,0,0,0,508.74,115.94ZM381.85,198.79c-5.3,6.87-14,11.51-22.12,14.35a51.66,51.66,0,0,1-6.92,1.89A43.84,43.84,0,0,1,324.47,211a34.62,34.62,0,0,1-3.13-1.79,44.77,44.77,0,0,1-16.56-18.67,45.33,45.33,0,0,1,15-57.51,61.67,61.67,0,0,1,9.94-5.42c1.82-.82,2.26-1.32,3.08.67a140,140,0,0,0,9.8,19.79c9.81,16.36,22.9,29.36,38,40.78,2.94,2.22,5.25,3.89,5.32,3.73A47.73,47.73,0,0,1,381.85,198.79Z" transform="translate(-18.08 -18.08)"/><path class="cls-2" d="M352.81,215A43.84,43.84,0,0,1,324.47,211a34.62,34.62,0,0,1-3.13-1.79,44.77,44.77,0,0,1-16.56-18.67,45.33,45.33,0,0,1,15-57.51,61.67,61.67,0,0,1,9.94-5.42c1.82-.82,2.26-1.32,3.08.67a140,140,0,0,0,9.8,19.79c9.81,16.36,22.9,29.36,38,40.78,2.94,2.22,5.25,3.89,5.32,3.73a47.73,47.73,0,0,1-4.07,6.24c-5.3,6.87-14,11.51-22.12,14.35A51.66,51.66,0,0,1,352.81,215Z" transform="translate(-18.08 -18.08)"/><path class="cls-3" d="M581.92,300a283.1,283.1,0,0,1-3.15,42.26v0a279.81,279.81,0,0,1-20,69.73,0,0,0,0,1,0,0A282.83,282.83,0,0,1,406.82,561c50.07-45.66,11.38-120.7,78.79-148.37l-.34-.08a178.39,178.39,0,0,1-53.13-22.87,194.38,194.38,0,0,1-41.09-34.8A169.81,169.81,0,0,1,362,310c-.94-2.2-1.87-4.41-2.72-6.67a217.3,217.3,0,0,1-9.3-30.88c-1.14-5.3-2.08-10.64-2.76-16-.3-2.4-.6-4.82-.76-7.22-.11-1.55.09-3.36-.39-4.82,0-.11,0-.36-.18-.41,3.75,1.62,8,1.78,12,1.85,9.43.18,18.87.89,28.35.8,22-.21,43.44-3.18,64.38-10a228,228,0,0,0,21.29-8.18c3.84-1.71,7.66-3.51,11.4-5.41,14.49-7.38,28.75-16.23,40.06-27.93a171.08,171.08,0,0,1,13,14c1.13,1.34,2.24,2.68,3.31,4.06a286.69,286.69,0,0,0,4.16-43.41v-1.6a272.69,272.69,0,0,0-35.11-52.22C446.34,42.84,350.68,9.36,259.58,21A282,282,0,0,1,581.92,300Z" transform="translate(-18.08 -18.08)"/><path class="cls-4" d="M352.81,215A43.84,43.84,0,0,1,324.47,211a34.62,34.62,0,0,1-3.13-1.79,44.77,44.77,0,0,1-16.56-18.67,45.33,45.33,0,0,1,15-57.51,61.67,61.67,0,0,1,9.94-5.42c1.82-.82,2.26-1.32,3.08.67a140,140,0,0,0,9.8,19.79c9.81,16.36,22.9,29.36,38,40.78,2.94,2.22,5.25,3.89,5.32,3.73a47.73,47.73,0,0,1-4.07,6.24c-5.3,6.87-14,11.51-22.12,14.35A51.66,51.66,0,0,1,352.81,215Z" transform="translate(-18.08 -18.08)"/><path class="cls-4" d="M539.69,213.17C532,259,515.46,303.25,505.51,348.52c-.62,2.82-1.12,7.18-1.68,12.34-2,18.13-4.62,46-15.42,50.64-1,.36-1.89.73-2.8,1.1l-.34-.08a178.39,178.39,0,0,1-53.13-22.87,194.38,194.38,0,0,1-41.09-34.8A169.81,169.81,0,0,1,362,310c-.94-2.2-1.87-4.41-2.72-6.67a217.3,217.3,0,0,1-9.3-30.88c-1.14-5.3-2.08-10.64-2.76-16-.3-2.4-.6-4.82-.76-7.22-.11-1.55.09-3.36-.39-4.82,0-.11,0-.36-.18-.41,3.75,1.62,8,1.78,12,1.85,9.43.18,18.87.89,28.35.8,22-.21,43.44-3.18,64.38-10a228,228,0,0,0,21.29-8.18c3.84-1.71,7.66-3.51,11.4-5.41,14.49-7.38,28.75-16.23,40.06-27.93a171.08,171.08,0,0,1,13,14C537.51,210.45,538.62,211.79,539.69,213.17Z" transform="translate(-18.08 -18.08)"/><path class="cls-5" d="M385.92,192.55a47.73,47.73,0,0,1-4.07,6.24c-5.3,6.87-14,11.51-22.12,14.35a51.66,51.66,0,0,1-6.92,1.89A43.84,43.84,0,0,1,324.47,211a34.62,34.62,0,0,1-3.13-1.79,44.77,44.77,0,0,1-16.56-18.67,45.33,45.33,0,0,1,15-57.51,61.67,61.67,0,0,1,9.94-5.42c1.82-.82,2.26-1.32,3.08.67a140,140,0,0,0,9.8,19.79c9.81,16.36,22.9,29.36,38,40.78C383.54,191,385.85,192.71,385.92,192.55Z" transform="translate(-18.08 -18.08)"/><path class="cls-6" d="M538.35,418c-1.19.05-2.31.09-3.47.12a178.83,178.83,0,0,1-22.31-.87,188.48,188.48,0,0,1-23.15-3.72c-1.28-.28-2.54-.58-3.81-.89l-.34-.08a178.39,178.39,0,0,1-53.13-22.87,194.38,194.38,0,0,1-41.09-34.8A169.81,169.81,0,0,1,362,310c-.94-2.2-1.87-4.41-2.72-6.67a217.3,217.3,0,0,1-9.3-30.88c-1.14-5.3-2.08-10.64-2.76-16-.3-2.4-.6-4.82-.76-7.22-.11-1.55.09-3.36-.39-4.82,0-.11,0-.36-.18-.41,76.92,33.59,124.9,76.8,153.72,111.72q1.85,2.24,3.59,4.43l.62.78c6.81,8.62,12.42,16.66,17,23.81C533.67,404.75,538.35,418,538.35,418Z" transform="translate(-18.08 -18.08)"/><path class="cls-7" d="M578.77,342.26v0a279.81,279.81,0,0,1-20,69.73,0,0,0,0,1,0,0c-.73,1.41-6.1,14.27-12.39,25.07-.18.31-5.49-14.63-8-19.16,0,0-4.68-13.21-17.53-33.29-4.57-7.15-10.18-15.19-17-23.81l-.62-.78q-1.74-2.19-3.59-4.43c-28.82-34.92-76.8-78.13-153.72-111.72,3.75,1.62,8,1.78,12,1.85,9.43.18,18.87.89,28.35.8,22-.21,43.44-3.18,64.38-10a228,228,0,0,0,21.29-8.18c3.84-1.71,7.66-3.51,11.4-5.41,14.49-7.38,28.75-16.23,40.06-27.93a171.08,171.08,0,0,1,13,14c1.13,1.34,2.24,2.68,3.31,4.06l.15.19a180.93,180.93,0,0,1,15.08,22.27c.75,1.28,1.46,2.59,2.17,3.89a185.24,185.24,0,0,1,21.68,102.74Z" transform="translate(-18.08 -18.08)"/></svg>