<?xml version="1.0"?><svg xmlns="http://www.w3.org/2000/svg" xmlns:xlink="http://www.w3.org/1999/xlink" viewBox="-66.60 -75.95 239.26 239.26" style="overflow: visible; width: 100%; height: 100%; position: absolute; left: 0px; top: 0px; transition: all 350ms ease-in-out 0s; backface-visibility: hidden; opacity: 1; transform: rotate3d(1, 1, 0, 0deg);" width="798.4031936127744px" height="798.4031936127744px"><g transform="translate(0 0)"><g transform="translate(0 0)"><g transform="translate(0 0)"><g><circle class=""></circle><circle fill="none" stroke="#594388" stroke-width="2.1554854529658205" transform="translate(0 0)" cx="53.03370240000001" cy="43.68" r="91.62989038499676" class=""></circle></g></g><g transform="translate(0 0)"><g transform="scale(1.344 1.344) translate(-3.5 65)"><g transform="translate(0.000,0)" fill="#594388" stroke="#594388" stroke-width="0"><path d="M30.40,-59.00L5.00,-59.00L5.00,-65.00L37.70,-65.00L37.70,-59.00L10.80,-6.00L37.20,-6.00L37.20,0.00L3.50,0.00L3.50,-6.00Z   " class=""></path></g><g transform="translate(28.519,0)" fill="#594388" stroke="#594388" stroke-width="0"><path d="M17.00,-53.80L17.00,0.00L10.00,0.00L10.00,-65.00L20.50,-65.00L31.90,-22.10L43.40,-65.00L53.90,-65.00L53.90,0.00L46.90,0.00L46.90,-53.80L35.20,-10.00L28.70,-10.00Z   " fill="#21f6f2" class=""></path></g></g></g><g transform="translate(0 72.76799999999997)"><g transform="scale(0.05313547490530283 0.05313547490530283) translate(-7.320000171661266 79.87000274658205)"><g transform="translate(0.000,0)" fill="#594388" stroke="#594388" stroke-width="0"><path d="M88.81,-11.62L18.94,-11.62L18.94,-58.20L88.81,-58.20L89.88,-58.18L91.95,-58.01L93.96,-57.68L95.90,-57.17L97.76,-56.50L99.55,-55.66L101.28,-54.66L102.93,-53.48L104.51,-52.14L105.27,-51.41L106.01,-50.64L107.36,-49.05L108.54,-47.40L109.55,-45.67L110.39,-43.87L111.07,-42.00L111.57,-40.06L111.91,-38.05L112.08,-35.98L112.10,-34.91L112.08,-33.85L111.91,-31.78L111.57,-29.78L111.07,-27.85L110.39,-25.98L109.55,-24.19L108.54,-22.46L107.36,-20.81L106.01,-19.22L105.27,-18.45L104.51,-17.71L102.93,-16.36L101.28,-15.18L99.55,-14.17L97.76,-13.33L95.90,-12.65L93.96,-12.15L91.95,-11.81L89.88,-11.64Z   M88.81,-69.87L7.32,-69.87L7.32,0.00L88.81,0.00L89.92,-0.02L92.09,-0.14L94.22,-0.38L96.29,-0.74L98.32,-1.23L100.29,-1.83L102.22,-2.56L104.09,-3.41L105.92,-4.38L107.70,-5.47L109.42,-6.69L111.10,-8.02L112.73,-9.48L113.52,-10.25L114.29,-11.04L115.75,-12.67L117.08,-14.35L118.30,-16.07L119.39,-17.84L120.36,-19.67L121.21,-21.54L121.94,-23.46L122.54,-25.43L123.03,-27.45L123.39,-29.52L123.63,-31.64L123.75,-33.81L123.77,-34.91L123.75,-36.02L123.63,-38.19L123.39,-40.31L123.03,-42.39L122.54,-44.41L121.94,-46.39L121.21,-48.31L120.36,-50.19L119.39,-52.01L118.30,-53.79L117.08,-55.51L115.75,-57.19L114.29,-58.82L113.52,-59.61L112.73,-60.38L111.10,-61.84L109.42,-63.18L107.70,-64.39L105.92,-65.48L104.09,-66.46L102.22,-67.31L100.29,-68.03L98.32,-68.64L96.29,-69.13L94.22,-69.49L92.09,-69.73L89.92,-69.85Z   " class=""></path></g><g transform="translate(188.447,0)" fill="#594388" stroke="#594388" stroke-width="0"><path d="M123.77,-40.77L7.32,-40.77L7.32,0.00L123.77,0.00L123.77,-11.62L18.94,-11.62L18.94,-29.10L123.77,-29.10Z   M123.77,-69.87L7.32,-69.87L7.32,-58.20L123.77,-58.20Z   " class=""></path></g><g transform="translate(363.431,0)" fill="#594388" stroke="#594388" stroke-width="0"><path d="M140.82,-69.87L125.53,-69.87L74.07,-9.03L22.55,-69.87L7.32,-69.87L66.45,0.00L81.68,0.00Z   " class=""></path></g><g transform="translate(555.465,0)" fill="#594388" stroke="#594388" stroke-width="0"><path d="M123.77,-40.77L7.32,-40.77L7.32,0.00L123.77,0.00L123.77,-11.62L18.94,-11.62L18.94,-29.10L123.77,-29.10Z   M123.77,-69.87L7.32,-69.87L7.32,-58.20L123.77,-58.20Z   " class=""></path></g><g transform="translate(743.915,0)" fill="#594388" stroke="#594388" stroke-width="0"><path d="M18.94,-69.87L7.32,-69.87L7.32,0.00L123.77,0.00L123.77,-11.62L18.94,-11.62Z   " class=""></path></g><g transform="translate(931.668,0)" fill="#594388" stroke="#594388" stroke-width="0"><path d="M103.36,-58.20L27.68,-58.20L26.51,-58.13L24.34,-57.57L22.41,-56.44L21.53,-55.66L20.74,-54.77L19.59,-52.83L19.01,-50.67L18.94,-49.51L18.94,-20.36L19.01,-19.18L19.59,-17.01L20.74,-15.08L21.53,-14.20L22.41,-13.41L24.34,-12.26L26.51,-11.69L27.68,-11.62L103.36,-11.62L104.54,-11.69L106.72,-12.27L108.68,-13.41L109.57,-14.20L110.34,-15.08L111.47,-17.01L112.03,-19.18L112.10,-20.36L112.10,-49.51L112.03,-50.67L111.47,-52.83L110.34,-54.77L109.57,-55.66L108.68,-56.44L106.72,-57.56L104.54,-58.13Z   M103.36,0.00L27.68,0.00L26.64,-0.02L24.61,-0.21L22.66,-0.58L20.79,-1.14L18.99,-1.88L17.26,-2.81L15.61,-3.93L14.04,-5.23L13.28,-5.95L12.56,-6.71L11.25,-8.29L10.14,-9.94L9.21,-11.67L8.46,-13.47L7.90,-15.34L7.53,-17.29L7.34,-19.32L7.32,-20.36L7.32,-49.51L7.34,-50.55L7.53,-52.57L7.90,-54.52L8.46,-56.39L9.21,-58.18L10.14,-59.90L11.25,-61.54L12.56,-63.11L13.28,-63.86L14.04,-64.59L15.61,-65.90L17.26,-67.03L18.99,-67.97L20.79,-68.72L22.66,-69.28L24.61,-69.66L26.64,-69.85L27.68,-69.87L103.36,-69.87L104.41,-69.85L106.44,-69.66L108.40,-69.28L110.28,-68.72L112.08,-67.97L113.80,-67.03L115.45,-65.90L117.02,-64.59L117.77,-63.86L118.50,-63.11L119.81,-61.54L120.93,-59.90L121.87,-58.18L122.62,-56.39L123.18,-54.52L123.56,-52.57L123.75,-50.55L123.77,-49.51L123.77,-20.36L123.75,-19.32L123.56,-17.29L123.18,-15.34L122.62,-13.47L121.87,-11.67L120.93,-9.94L119.81,-8.29L118.50,-6.71L117.77,-5.95L117.02,-5.23L115.45,-3.93L113.80,-2.81L112.08,-1.88L110.28,-1.14L108.40,-0.58L106.44,-0.21L104.41,-0.02Z   " class=""></path></g><g transform="translate(1120.118,0)" fill="#594388" stroke="#594388" stroke-width="0"><path d="M103.36,-69.87L7.32,-69.87L7.32,-58.20L103.36,-58.20L104.54,-58.13L106.72,-57.57L108.68,-56.44L109.57,-55.66L110.34,-54.77L111.47,-52.83L112.03,-50.67L112.10,-49.51L112.03,-48.33L111.47,-46.15L110.34,-44.20L109.57,-43.31L108.68,-42.53L106.72,-41.41L104.54,-40.84L103.36,-40.77L7.32,-40.77L7.32,0.00L18.94,0.00L18.94,-29.10L103.36,-29.10L104.41,-29.12L106.44,-29.31L108.40,-29.69L110.28,-30.25L112.08,-31.00L113.80,-31.94L115.45,-33.06L117.02,-34.37L117.77,-35.10L118.50,-35.85L119.81,-37.42L120.93,-39.07L121.87,-40.79L122.62,-42.59L123.18,-44.47L123.56,-46.43L123.75,-48.46L123.77,-49.51L123.75,-50.55L123.56,-52.57L123.18,-54.52L122.62,-56.39L121.87,-58.18L120.93,-59.90L119.81,-61.54L118.50,-63.11L117.77,-63.86L117.02,-64.59L115.45,-65.90L113.80,-67.03L112.08,-67.97L110.28,-68.72L108.40,-69.28L106.44,-69.66L104.41,-69.85Z   " class=""></path></g><g transform="translate(1308.559,0)" fill="#594388" stroke="#594388" stroke-width="0"><path d="M129.58,-69.87L118.31,-69.87L68.45,-25.29L18.60,-69.87L7.32,-69.87L7.32,0.00L18.94,0.00L18.94,-53.95L68.45,-9.66L117.91,-53.95L117.91,0.00L129.58,0.00Z   " class=""></path></g><g transform="translate(1502.819,0)" fill="#594388" stroke="#594388" stroke-width="0"><path d="M123.77,-40.77L7.32,-40.77L7.32,0.00L123.77,0.00L123.77,-11.62L18.94,-11.62L18.94,-29.10L123.77,-29.10Z   M123.77,-69.87L7.32,-69.87L7.32,-58.20L123.77,-58.20Z   " class=""></path></g><g transform="translate(1691.269,0)" fill="#594388" stroke="#594388" stroke-width="0"><path d="M123.77,-69.87L112.10,-69.87L112.10,-10.88L23.63,-69.87L7.32,-69.87L7.32,0.00L18.94,0.00L18.94,-58.98L107.47,0.00L123.77,0.00Z   " class=""></path></g><g transform="translate(1879.719,0)" fill="#594388" stroke="#594388" stroke-width="0"><path d="M123.77,-69.87L7.32,-69.87L7.32,-58.20L59.71,-58.20L59.71,0.00L71.38,0.00L71.38,-58.20L123.77,-58.20Z   " class=""></path></g></g></g></g></g></svg>